<?xml version="1.0" encoding="UTF-8"?>
<!DOCTYPE svg PUBLIC "-//W3C//DTD SVG 1.1//EN" "http://www.w3.org/Graphics/SVG/1.1/DTD/svg11.dtd">
<svg xmlns="http://www.w3.org/2000/svg" version="1.1" width="270px" height="264px" style="shape-rendering:geometricPrecision; text-rendering:geometricPrecision; image-rendering:optimizeQuality; fill-rule:evenodd; clip-rule:evenodd" xmlns:xlink="http://www.w3.org/1999/xlink">
<g><path style="opacity:1" fill="#fefefd" d="M -0.5,-0.5 C 89.5,-0.5 179.5,-0.5 269.5,-0.5C 269.5,87.5 269.5,175.5 269.5,263.5C 202.5,263.5 135.5,263.5 68.5,263.5C 66.3445,261.04 64.0111,261.04 61.5,263.5C 40.8333,263.5 20.1667,263.5 -0.5,263.5C -0.5,175.5 -0.5,87.5 -0.5,-0.5 Z"/></g>
<g><path style="opacity:1" fill="#76add7" d="M 151.5,20.5 C 169.363,20.1623 181.53,28.1623 188,44.5C 190.789,64.1002 182.956,77.2669 164.5,84C 143.316,86.9981 130.149,78.1648 125,57.5C 123.989,38.2079 132.823,25.8746 151.5,20.5 Z"/></g>
<g><path style="opacity:1" fill="#82488e" d="M 95.5,30.5 C 113.451,31.0704 120.284,40.0704 116,57.5C 109.806,66.8481 101.306,69.6814 90.5,66C 80.8435,59.1882 78.3435,50.3549 83,39.5C 86.2991,35.1179 90.4657,32.1179 95.5,30.5 Z"/></g>
<g><path style="opacity:1" fill="#fffde3" d="M 79.5,64.5 C 76.1503,63.4967 72.817,62.4967 69.5,61.5C 66.3023,60.3 62.969,60.3 59.5,61.5C 59.6107,60.8826 59.944,60.3826 60.5,60C 65.5576,59.3388 70.5576,59.6721 75.5,61C 77.0931,61.9487 78.4264,63.1154 79.5,64.5 Z"/></g>
<g><path style="opacity:1" fill="#f1d1bb" d="M 212.5,59.5 C 215.313,59.0246 217.313,60.0246 218.5,62.5C 216.456,61.4918 214.456,60.4918 212.5,59.5 Z"/></g>
<g><path style="opacity:1" fill="#fcf7a6" d="M 69.5,61.5 C 64.4364,61.7949 59.4364,62.4616 54.5,63.5C 55.6354,61.7868 57.302,61.1201 59.5,61.5C 62.969,60.3 66.3023,60.3 69.5,61.5 Z"/></g>
<g><path style="opacity:1" fill="#d96f3e" d="M 212.5,59.5 C 214.456,60.4918 216.456,61.4918 218.5,62.5C 220.167,63.5 221.5,64.8333 222.5,66.5C 222.427,68.0269 223.094,69.0269 224.5,69.5C 227.161,78.1733 225.161,85.5066 218.5,91.5C 213.012,93.4484 207.345,93.9484 201.5,93C 198.669,90.9993 196.003,88.8327 193.5,86.5C 193.5,85.8333 193.5,85.1667 193.5,84.5C 192.07,79.4607 192.236,74.4607 194,69.5C 194.333,70.1667 194.667,70.8333 195,71.5C 195.333,70.1667 195.667,68.8333 196,67.5C 198.227,66.0453 199.727,64.0453 200.5,61.5C 204.21,59.8643 208.21,59.1977 212.5,59.5 Z"/></g>
<g><path style="opacity:1" fill="#fbed50" d="M 69.5,61.5 C 72.817,62.4967 76.1503,63.4967 79.5,64.5C 82.4546,67.1156 85.4546,69.7823 88.5,72.5C 90.6936,75.8808 92.0269,79.5475 92.5,83.5C 92.6657,87.8461 92.499,92.1794 92,96.5C 90.2734,99.3914 88.7734,102.391 87.5,105.5C 85.5,106.833 83.8333,108.5 82.5,110.5C 80.9731,110.427 79.9731,111.094 79.5,112.5C 76.5394,113.323 73.5394,113.99 70.5,114.5C 65.9464,114.745 61.4464,114.412 57,113.5C 53.4676,110.634 50.3009,107.468 47.5,104C 46.2068,103.51 44.8734,103.343 43.5,103.5C 42.0937,103.027 41.427,102.027 41.5,100.5C 38.9406,92.4761 38.9406,84.4761 41.5,76.5C 44.5942,74.7284 46.5942,72.0617 47.5,68.5C 48.9923,65.6769 51.3257,64.0102 54.5,63.5C 59.4364,62.4616 64.4364,61.7949 69.5,61.5 Z"/></g>
<g><path style="opacity:1" fill="#e0a688" d="M 222.5,66.5 C 223.906,66.9731 224.573,67.9731 224.5,69.5C 223.094,69.0269 222.427,68.0269 222.5,66.5 Z"/></g>
<g><path style="opacity:1" fill="#fbf07a" d="M 47.5,68.5 C 46.5942,72.0617 44.5942,74.7284 41.5,76.5C 42.0658,72.6799 44.0658,70.0133 47.5,68.5 Z"/></g>
<g><path style="opacity:1" fill="#d37b51" d="M 200.5,61.5 C 199.727,64.0453 198.227,66.0453 196,67.5C 195.667,68.8333 195.333,70.1667 195,71.5C 194.667,70.8333 194.333,70.1667 194,69.5C 192.236,74.4607 192.07,79.4607 193.5,84.5C 192.883,84.3893 192.383,84.056 192,83.5C 191.052,77.6547 191.552,71.988 193.5,66.5C 195.573,64.4202 197.907,62.7536 200.5,61.5 Z"/></g>
<g><path style="opacity:1" fill="#f9ebdf" d="M 193.5,66.5 C 191.552,71.988 191.052,77.6547 192,83.5C 192.383,84.056 192.883,84.3893 193.5,84.5C 193.5,85.1667 193.5,85.8333 193.5,86.5C 192.542,86.0472 191.708,85.3805 191,84.5C 189.637,80.2388 189.304,75.9054 190,71.5C 190.549,69.2404 191.716,67.5738 193.5,66.5 Z"/></g>
<g><path style="opacity:1" fill="#f5dac9" d="M 224.5,69.5 C 225.117,69.6107 225.617,69.944 226,70.5C 226.667,75.1667 226.667,79.8333 226,84.5C 224.264,87.7392 221.764,90.0726 218.5,91.5C 225.161,85.5066 227.161,78.1733 224.5,69.5 Z"/></g>
<g><path style="opacity:1" fill="#fbf490" d="M 41.5,76.5 C 38.9406,84.4761 38.9406,92.4761 41.5,100.5C 39.9328,99.3192 39.0995,97.6526 39,95.5C 38.3333,90.5 38.3333,85.5 39,80.5C 39.2004,78.6803 40.0337,77.347 41.5,76.5 Z"/></g>
<g><path style="opacity:1" fill="#fefcd2" d="M 92.5,83.5 C 96.1739,91.9285 94.5072,99.2619 87.5,105.5C 88.7734,102.391 90.2734,99.3914 92,96.5C 92.499,92.1794 92.6657,87.8461 92.5,83.5 Z"/></g>
<g><path style="opacity:1" fill="#7a512b" d="M 175.5,103.5 C 172.742,106.678 170.742,110.345 169.5,114.5C 163.627,123.579 158.794,133.246 155,143.5C 154.149,149.253 154.483,154.92 156,160.5C 157.736,163.739 160.236,166.073 163.5,167.5C 163.611,168.117 163.944,168.617 164.5,169C 172.704,171.089 180.704,170.922 188.5,168.5C 194.799,167.79 200.799,165.957 206.5,163C 215.094,161.759 218.094,165.259 215.5,173.5C 211.555,176.305 207.222,178.305 202.5,179.5C 198.02,180.698 193.687,182.031 189.5,183.5C 182.806,183.633 176.473,184.966 170.5,187.5C 165.38,188.961 160.713,191.294 156.5,194.5C 154.246,195.124 152.579,196.457 151.5,198.5C 147.338,202.001 144.338,206.335 142.5,211.5C 140.935,213.509 139.935,215.843 139.5,218.5C 139.5,219.167 139.5,219.833 139.5,220.5C 138.732,221.263 138.232,222.263 138,223.5C 137.793,235.545 137.293,247.545 136.5,259.5C 133.324,262.574 129.658,263.241 125.5,261.5C 125.217,260.711 124.717,260.044 124,259.5C 123.667,234.5 123.333,209.5 123,184.5C 122.79,182.942 122.29,181.609 121.5,180.5C 120.295,173.053 117.795,166.053 114,159.5C 105.823,147.147 97.1566,135.147 88,123.5C 85.5228,119.22 86.3561,115.72 90.5,113C 94.1799,111.973 97.3466,112.806 100,115.5C 104.5,121.333 109,127.167 113.5,133C 116.48,135.324 119.813,136.824 123.5,137.5C 126.976,138.643 130.642,138.81 134.5,138C 136.324,137.34 137.657,136.173 138.5,134.5C 142.817,130.338 146.65,125.672 150,120.5C 153.866,112.136 158.366,104.136 163.5,96.5C 170.76,93.1319 174.76,95.4653 175.5,103.5 Z"/></g>
<g><path style="opacity:1" fill="#7b522c" d="M 121.5,98.5 C 139.608,98.0861 146.108,106.419 141,123.5C 129.384,135.171 119.384,133.838 111,119.5C 109.206,109.754 112.706,102.754 121.5,98.5 Z"/></g>
<g><path style="opacity:1" fill="#be426d" d="M 218.5,104.5 C 211.862,103.502 205.195,103.335 198.5,104C 195.724,106.697 192.391,108.197 188.5,108.5C 195.606,102.196 203.939,100.029 213.5,102C 215.315,102.757 216.981,103.59 218.5,104.5 Z"/></g>
<g><path style="opacity:1" fill="#c32c60" d="M 218.5,104.5 C 219.833,104.833 221.167,105.167 222.5,105.5C 223.585,107.587 225.251,108.92 227.5,109.5C 228.861,111.85 230.194,114.184 231.5,116.5C 231.557,117.609 231.89,118.609 232.5,119.5C 232.572,125.545 232.072,131.545 231,137.5C 228.314,140.713 226.481,144.38 225.5,148.5C 211.886,159.661 198.719,158.994 186,146.5C 184.235,143.968 182.735,141.301 181.5,138.5C 180.232,132.161 180.232,125.828 181.5,119.5C 182.11,118.609 182.443,117.609 182.5,116.5C 184.025,113.437 186.025,110.77 188.5,108.5C 192.391,108.197 195.724,106.697 198.5,104C 205.195,103.335 211.862,103.502 218.5,104.5 Z"/></g>
<g><path style="opacity:1" fill="#efc6d9" d="M 222.5,105.5 C 224.749,106.08 226.415,107.413 227.5,109.5C 225.251,108.92 223.585,107.587 222.5,105.5 Z"/></g>
<g><path style="opacity:1" fill="#faed64" d="M 43.5,103.5 C 44.8734,103.343 46.2068,103.51 47.5,104C 50.3009,107.468 53.4676,110.634 57,113.5C 61.4464,114.412 65.9464,114.745 70.5,114.5C 70.5,114.833 70.5,115.167 70.5,115.5C 58.5917,117.655 49.5917,113.655 43.5,103.5 Z"/></g>
<g><path style="opacity:1" fill="#fefcce" d="M 87.5,105.5 C 86.8333,108.167 85.1667,109.833 82.5,110.5C 83.8333,108.5 85.5,106.833 87.5,105.5 Z"/></g>
<g><path style="opacity:1" fill="#e3d6cc" d="M 175.5,103.5 C 175.643,105.262 175.309,106.929 174.5,108.5C 173.176,110.942 171.509,112.942 169.5,114.5C 170.742,110.345 172.742,106.678 175.5,103.5 Z"/></g>
<g><path style="opacity:1" fill="#fcf8b4" d="M 79.5,112.5 C 76.9924,114.554 73.9924,115.554 70.5,115.5C 70.5,115.167 70.5,114.833 70.5,114.5C 73.5394,113.99 76.5394,113.323 79.5,112.5 Z"/></g>
<g><path style="opacity:1" fill="#e8b9cf" d="M 182.5,116.5 C 182.443,117.609 182.11,118.609 181.5,119.5C 181.167,119.5 180.833,119.5 180.5,119.5C 180.427,117.973 181.094,116.973 182.5,116.5 Z"/></g>
<g><path style="opacity:1" fill="#e4a5c3" d="M 231.5,116.5 C 232.906,116.973 233.573,117.973 233.5,119.5C 233.167,119.5 232.833,119.5 232.5,119.5C 231.89,118.609 231.557,117.609 231.5,116.5 Z"/></g>
<g><path style="opacity:1" fill="#dcf2da" d="M 50.5,122.5 C 59.6146,119.141 66.2813,121.808 70.5,130.5C 65.2063,124.511 58.5397,121.844 50.5,122.5 Z"/></g>
<g><path style="opacity:1" fill="#53a448" d="M 50.5,122.5 C 58.5397,121.844 65.2063,124.511 70.5,130.5C 70.5,130.833 70.5,131.167 70.5,131.5C 71.1621,135.466 71.4955,139.466 71.5,143.5C 70.3774,147.952 68.0441,151.619 64.5,154.5C 60.3263,156.064 55.993,156.731 51.5,156.5C 48.0434,155.606 45.0434,153.94 42.5,151.5C 38.9067,146.505 37.5734,140.838 38.5,134.5C 40.1667,128.167 44.1667,124.167 50.5,122.5 Z"/></g>
<g><path style="opacity:1" fill="#f5dbea" d="M 233.5,119.5 C 234.117,119.611 234.617,119.944 235,120.5C 235.167,122.667 235.333,124.833 235.5,127C 235.672,130.477 235.006,133.644 233.5,136.5C 234.716,130.812 234.716,125.145 233.5,119.5 Z"/></g>
<g><path style="opacity:1" fill="#d37297" d="M 180.5,119.5 C 180.833,119.5 181.167,119.5 181.5,119.5C 180.232,125.828 180.232,132.161 181.5,138.5C 179.245,132.399 178.912,126.066 180.5,119.5 Z"/></g>
<g><path style="opacity:1" fill="#d0ebcf" d="M 38.5,134.5 C 37.5734,140.838 38.9067,146.505 42.5,151.5C 41.5041,151.586 40.6708,151.252 40,150.5C 37.6737,147.03 36.5071,143.197 36.5,139C 36.5687,137.014 37.2353,135.514 38.5,134.5 Z"/></g>
<g><path style="opacity:1" fill="#86bf84" d="M 70.5,131.5 C 71.9256,133.679 72.5922,136.179 72.5,139C 72.4915,140.707 72.1582,142.207 71.5,143.5C 71.4955,139.466 71.1621,135.466 70.5,131.5 Z"/></g>
<g><path style="opacity:1" fill="#907155" d="M 138.5,134.5 C 137.657,136.173 136.324,137.34 134.5,138C 130.642,138.81 126.976,138.643 123.5,137.5C 128.882,138.02 133.882,137.02 138.5,134.5 Z"/></g>
<g><path style="opacity:1" fill="#bf3d68" d="M 232.5,119.5 C 232.833,119.5 233.167,119.5 233.5,119.5C 234.716,125.145 234.716,130.812 233.5,136.5C 231.838,141.154 229.171,145.154 225.5,148.5C 226.481,144.38 228.314,140.713 231,137.5C 232.072,131.545 232.572,125.545 232.5,119.5 Z"/></g>
<g><path style="opacity:1" fill="#d8f0d7" d="M 64.5,154.5 C 63.9423,155.79 62.9423,156.623 61.5,157C 57.9733,157.808 54.6399,157.641 51.5,156.5C 55.993,156.731 60.3263,156.064 64.5,154.5 Z"/></g>
<g><path style="opacity:1" fill="#83a8c7" d="M 81.5,158.5 C 79.064,159.871 76.3973,160.871 73.5,161.5C 75.6174,159.345 78.284,158.345 81.5,158.5 Z"/></g>
<g><path style="opacity:1" fill="#306ba1" d="M 81.5,158.5 C 93.0404,157.763 101.374,162.43 106.5,172.5C 107.774,178.508 107.774,184.508 106.5,190.5C 104.277,196.721 100.277,201.387 94.5,204.5C 89.5365,205.254 84.5365,205.587 79.5,205.5C 71.6456,202.979 65.9789,197.979 62.5,190.5C 61.8379,186.534 61.5045,182.534 61.5,178.5C 62.4196,170.592 66.4196,164.925 73.5,161.5C 76.3973,160.871 79.064,159.871 81.5,158.5 Z"/></g>
<g><path style="opacity:1" fill="#dccfc1" d="M 163.5,167.5 C 171.779,168.44 180.112,168.773 188.5,168.5C 180.704,170.922 172.704,171.089 164.5,169C 163.944,168.617 163.611,168.117 163.5,167.5 Z"/></g>
<g><path style="opacity:1" fill="#5986ac" d="M 106.5,172.5 C 107.222,172.918 107.722,173.584 108,174.5C 108.667,179.167 108.667,183.833 108,188.5C 107.722,189.416 107.222,190.082 106.5,190.5C 107.774,184.508 107.774,178.508 106.5,172.5 Z"/></g>
<g><path style="opacity:1" fill="#e4dace" d="M 202.5,179.5 C 199.059,183.134 194.726,184.467 189.5,183.5C 193.687,182.031 198.02,180.698 202.5,179.5 Z"/></g>
<g><path style="opacity:1" fill="#dbccbd" d="M 189.5,183.5 C 185.732,184.076 182.065,185.242 178.5,187C 175.854,187.497 173.187,187.664 170.5,187.5C 176.473,184.966 182.806,183.633 189.5,183.5 Z"/></g>
<g><path style="opacity:1" fill="#cce1ee" d="M 61.5,178.5 C 61.5045,182.534 61.8379,186.534 62.5,190.5C 61.8826,190.389 61.3826,190.056 61,189.5C 60.1901,185.642 60.3567,181.976 61.5,178.5 Z"/></g>
<g><path style="opacity:1" fill="#d9c9bb" d="M 156.5,194.5 C 155.461,196.531 153.795,197.864 151.5,198.5C 152.579,196.457 154.246,195.124 156.5,194.5 Z"/></g>
<g><path style="opacity:1" fill="#cde1ee" d="M 94.5,204.5 C 94.0825,205.222 93.4158,205.722 92.5,206C 87.9796,206.814 83.6463,206.647 79.5,205.5C 84.5365,205.587 89.5365,205.254 94.5,204.5 Z"/></g>
<g><path style="opacity:1" fill="#e2d6c8" d="M 121.5,180.5 C 122.29,181.609 122.79,182.942 123,184.5C 123.333,209.5 123.667,234.5 124,259.5C 124.717,260.044 125.217,260.711 125.5,261.5C 124.504,261.586 123.671,261.252 123,260.5C 122.667,233.827 122.167,207.161 121.5,180.5 Z"/></g>
<g><path style="opacity:1" fill="#d0bfb0" d="M 142.5,211.5 C 142.834,214.491 141.834,216.824 139.5,218.5C 139.935,215.843 140.935,213.509 142.5,211.5 Z"/></g>
<g><path style="opacity:1" fill="#e9ddd2" d="M 139.5,220.5 C 139.247,233.85 138.247,246.85 136.5,259.5C 137.293,247.545 137.793,235.545 138,223.5C 138.232,222.263 138.732,221.263 139.5,220.5 Z"/></g>
<g><path style="opacity:1" fill="#51968a" d="M 68.5,263.5 C 66.1667,263.5 63.8333,263.5 61.5,263.5C 64.0111,261.04 66.3445,261.04 68.5,263.5 Z"/></g>
</svg>
